<svg xmlns="http://www.w3.org/2000/svg" viewBox="0 0 726.62 438.52"><g id="Layer_2" data-name="Layer 2"><g id="Layer_1-2" data-name="Layer 1"><rect width="726.62" height="438.52" style="fill:#fff"/><text transform="translate(210.4 338.36)" style="font-size:38.05976104736328px;fill:#002b49;font-family:Assistant-SemiBold, Assistant;font-weight:600">IM<tspan x="38.48" y="0" style="letter-spacing:-0.009994048393437076em">A</tspan><tspan x="59.11" y="0" style="letter-spacing:0.00001282933041519522em">GE N</tspan><tspan x="135.53" y="0" style="letter-spacing:-0.025004364979215484em">O</tspan><tspan x="160.08" y="0" style="letter-spacing:0.00001282933041519522em">T </tspan><tspan x="188.32" y="0" style="letter-spacing:-0.009994048393437076em">F</tspan><tspan x="207.08" y="0">OUND</tspan></text><polygon points="354.5 93.65 301.86 141.63 357.75 137.49 413.64 133.34 354.5 93.65" style="fill:none;stroke:#002b49;stroke-miterlimit:10;stroke-width:4px"/><path d="M287.14,242.31h55.79a0,0,0,0,1,0,0v43.84a4.34,4.34,0,0,1-4.34,4.34H291.47a4.34,4.34,0,0,1-4.34-4.34V242.31a0,0,0,0,1,0,0Z" transform="translate(-18.83 24.02) rotate(-4.24)" style="fill:#ccbebc"/><path d="M307.15,211.13l-34.24,29.19a2.79,2.79,0,0,0,2,4.9l38.33-2.85,38.33-2.84a2.79,2.79,0,0,0,1.27-5.14l-38.18-23.82A6.4,6.4,0,0,0,307.15,211.13Z" style="fill:#002b49"/><path d="M377.2,220.31h74.35a0,0,0,0,1,0,0v59.86a4.34,4.34,0,0,1-4.34,4.34H381.54a4.34,4.34,0,0,1-4.34-4.34V220.31A0,0,0,0,1,377.2,220.31Z" transform="translate(-17.53 31.32) rotate(-4.24)" style="fill:#ccbebc"/><path d="M403.88,178.76l-45.64,38.89a3.71,3.71,0,0,0,2.68,6.53L412,220.4l51.08-3.79a3.71,3.71,0,0,0,1.69-6.85L413.9,178A8.48,8.48,0,0,0,403.88,178.76Z" style="fill:#002b49"/><circle cx="286.97" cy="185.78" r="14.6" style="fill:#ccbebc"/><circle cx="354.62" cy="95.23" r="5.23" style="fill:#002b49"/><path d="M311.3,266.36h9.24a2.81,2.81,0,0,1,2.81,2.81v21.32a0,0,0,0,1,0,0H308.49a0,0,0,0,1,0,0V269.17a2.81,2.81,0,0,1,2.81-2.81Z" transform="translate(-19.72 24.12) rotate(-4.24)" style="fill:#fff"/><path d="M410,256.95H421.5a2.81,2.81,0,0,1,2.81,2.81v24.7a0,0,0,0,1,0,0H407.15a0,0,0,0,1,0,0v-24.7A2.81,2.81,0,0,1,410,256.95Z" transform="matrix(1, -0.07, 0.07, 1, -18.87, 31.47)" style="fill:#fff"/><rect x="235.13" y="137.28" width="256.35" height="150.28" rx="10" transform="translate(-14.71 27.44) rotate(-4.24)" style="fill:none;stroke:#002b49;stroke-miterlimit:10;stroke-width:4px"/><rect x="417.8" y="231.56" width="16.62" height="17.54" rx="2.42" transform="translate(-16.6 32.16) rotate(-4.24)" style="fill:#fff"/><line x1="425.37" y1="230.33" x2="426.82" y2="249.86" style="fill:#fff;stroke:#ccbebc;stroke-miterlimit:10"/><line x1="436.28" y1="239.34" x2="415.9" y2="240.85" style="fill:#fff;stroke:#ccbebc;stroke-miterlimit:10"/><rect x="391.89" y="233.48" width="16.62" height="17.54" rx="2.42" transform="translate(-16.81 30.25) rotate(-4.24)" style="fill:#fff"/><line x1="399.46" y1="232.25" x2="400.91" y2="251.78" style="fill:#fff;stroke:#ccbebc;stroke-miterlimit:10"/><line x1="409.59" y1="241.32" x2="390.78" y2="242.71" style="fill:#fff;stroke:#ccbebc;stroke-miterlimit:10"/></g></g></svg>