<svg xmlns="http://www.w3.org/2000/svg" viewBox="0 0 642.75 252.35"><path d="M104,133.23a8.08,8.08,0,0,0-10,2.37c-2.72,3.52-.29,9.57-.16,10C99.3,162.9,81.61,179.9,57.63,179.9,36,179.9,9.35,169.62,0,147.75l4.55,37.17a51.36,51.36,0,0,1,15.75-2.29c11.39,0,21.2,3.43,37.38,3.43,23.93,0,41.57-11.24,47.9-24.39,3.19-6.61,5-11.55,3.72-20C109.22,141.06,108.63,135.42,104,133.23Zm142,49.18v1.36H189.5v-1.36c12.09,0,18.25-7.3,18.25-32.15V98.5c0-15-11.86-24.16-25.76-24.16-12.78,0-25,9.69-36.26,24.85V148c0,27.13,5.93,34.43,18.25,34.43v1.36H107.44v-1.36c12.3,0,18.46-7.76,18.46-33.75V113.8a85.21,85.21,0,0,1-12.33,5.63,85.21,85.21,0,0,1-27.67,4,110.79,110.79,0,0,1-45.77-12.08C15.68,99.17,2.35,85.71,2.35,61.9c0-26,26.15-37.73,51-37.73,12.31,0,22.35,1.61,31.23,1.61A41.67,41.67,0,0,0,99,23.5l3.18,32.36c-4.32-16.41-26-26.2-45.13-26.2-16.64,0-36.19,10.58-36.19,27.92,0,16.15,14.1,30,29.23,39,21.29,12.62,37.27,19.47,63.53,14.9a33.25,33.25,0,0,0,12.33-5.17V23.73c0-14.83-1.6-19.16-9.35-19.16a38.06,38.06,0,0,0-6.83.68V3.43C117,1.6,124.53,0,130.46,0c10.48,0,15.27,4.34,15.27,12.09V88.47c12.37-15.85,27.82-23.71,43.56-23.71,20.74,0,38.52,11.63,38.52,30.78V148C227.81,175.11,233.74,182.41,246.06,182.41Z" style="fill:#fff"/><path d="M284.32,22.58c-5,0-10.26,3.65-11.16,12.77-1.37,6.16,1.81,15.5-8.44,18.69l.67,1.6c8-1.83,15.05-5.24,20.07-9.58C300.51,33.3,292.76,22.58,284.32,22.58Z" style="fill:#fff"/><path d="M290.7,148V77.53c0-8.44-5.92-12.08-16-12.08-5.69,0-12.53,1.13-20.28,3.18v1.83a35.54,35.54,0,0,1,6.38-.69c7.52,0,10,4.11,10,16.42V148c0,27.12-5.92,34.43-18.47,34.43v1.36h56.78v-1.36C296.63,182.41,290.7,175.1,290.7,148Z" style="fill:#fff"/><path d="M506.4,161.88c0,10-5.93,15.51-11.85,15.51-5.25,0-10.49-4.79-10.49-15.51V96.68c0-19.61-20.52-32.15-42.63-32.15-10.95,0-22.12,3-31,9.81-5-5.94-12.55-10.49-24.17-10.49-15.73,0-25.77,8.44-31,21v-10c0-7.53-5.69-10.71-15.05-10.71A82.94,82.94,0,0,0,319,67.49v1.83a45,45,0,0,1,7.07-.69c7.52,0,9.34,4.11,9.34,18.7v62.48c0,28.26-6.15,32.6-18.69,32.6v1.36h57.22v-1.36c-12.53,0-18.69-4.34-18.69-32.6V106c0-23.48,13-35.56,26.9-35.56,9.58,0,13.92,5.92,15.73,16.42.92,6.84,5.48,9.8,9.81,9.8a9.11,9.11,0,0,0,9.12-8.43c3.41-10.5,10.94-17.79,23.48-17.79,13.23,0,23.72,8.66,23.72,26.22v23.26a106.25,106.25,0,0,0-28.28-3.65c-24.84,0-52.9,8.2-52.9,37.84,0,21.43,17.34,31.47,36.26,31.47,18.47,0,38.31-9.58,44.92-26.68v7.76c0,11.85,10.48,18.46,21.2,18.46,11.16,0,22.57-7.3,22.57-23.26ZM464,144.78c0,16.19-17.1,31-35.35,31-14.36,0-25.53-8.89-25.53-26.44,0-20.76,18.46-26.91,36-26.91,9.58,0,19.15,1.83,24.86,4.34Z" style="fill:#fff"/><path d="M624.27,147.75V95.54c0-20.53-16.63-31.23-35.33-31.23-16.42,0-34.21,8.43-43.09,25.75,0-18.23-4.56-24.84-16.19-24.84-5.25,0-11.86,1.36-20.07,3.41v1.83a38.06,38.06,0,0,1,6.61-.69c7.07,0,9.81,3.66,9.81,15.74v62.24c0,27.13-5.92,34.66-18.46,34.66v1.36h56.76v-1.36c-12.53,0-18.46-8-18.46-34.66V98.27c7.3-16.63,21.2-24.39,33.51-24.39,13.45,0,25.08,8.89,25.08,24.62v49.25c0,27.58-6.15,34.66-18.47,34.66v1.36h56.78v-1.36C630.21,182.41,624.27,174.88,624.27,147.75Z" style="fill:#fff"/><path d="M39.78,220.07V250H4.33V205H26.15Q39.77,205,39.78,220.07Zm-6.25,25V219.83q0-5.27-2.27-7.58a8.69,8.69,0,0,0-6.49-2.31H10.58v35.12Z" style="fill:#fff"/><path d="M51.62,214.48,50.56,205h6.17l1.13,9.49v12.08l-.08,5.11L51.62,233Z" style="fill:#fff"/><path d="M67.35,245.06H81.46v-27c0-2.65-.52-4.61-1.58-5.88a7.35,7.35,0,0,0-4.74-2.4L69.7,209l.9-4.86,7.05,1.05a11.61,11.61,0,0,1,7.46,4c1.73,2.13,2.6,5,2.6,8.71V250H67.35Z" style="fill:#fff"/><path d="M99.47,245.06h13.3q6.33,0,10.1-3.53c2.51-2.36,3.77-6.23,3.77-11.64v-4.95q0-7.38-2.84-11.19t-8.6-3.81h-8.51l-2.11,9a19.23,19.23,0,0,0-.49,4.05,5.89,5.89,0,0,0,1.5,4.3,9.21,9.21,0,0,0,5,2.19l-1.3,4.3c-3.78-.38-6.53-1.44-8.23-3.2a10.13,10.13,0,0,1-2.55-7.34,25.57,25.57,0,0,1,.48-4.79L102.06,205h14.2q7.86,0,12.2,5.19t4.42,14.92v4.55q0,10.53-5.27,15.45T113.83,250H99.47Z" style="fill:#fff"/><path d="M192.9,245.06V250H157.54v-4.94H180.9V219.83q0-5.27-2.27-7.58a8.71,8.71,0,0,0-6.49-2.31h-14.6V205h16q13.62,0,13.62,15.08v25Z" style="fill:#fff"/><path d="M202.39,214.48l-1-9.49h6.16l1.14,9.49V250h-6.25Z" style="fill:#fff"/><path d="M252.27,250H217.39v-4.94h25.55L219,205h6.49L237,224.37,245.29,205h6.33l-11.19,25.06Z" style="fill:#fff"/><path d="M262.49,214.48,261.44,205h6.16l1.13,9.49v12.08l-.08,5.11-6.16,1.3Z" style="fill:#fff"/><path d="M313.1,205q0,16.71-1.26,24.9t-5.92,13q-4.67,4.78-15,6.81l-13.63,2.67-.89-5,14.35-2.76L280.33,205h6.25l9.89,38a13.35,13.35,0,0,0,7.22-6.29,28.44,28.44,0,0,0,2.68-10.87q.48-6.6.57-20.8Z" style="fill:#fff"/><path d="M323.72,214.48,322.67,205h6.16l1.14,9.49V250h-6.25Z" style="fill:#fff"/><path d="M353.57,246.68q4.79-.41,6.61-2.72t1.83-7V205h19.87q13.62,0,13.62,15.08V250h-6.24V219.83q0-5.27-2.27-7.58a8.71,8.71,0,0,0-6.49-2.31H368.25V236.3q0,7.13-3.32,10.66t-10.71,4.18Z" style="fill:#fff"/><path d="M407.18,214.48,406.13,205h6.16l1.14,9.49V250h-6.25Z" style="fill:#fff"/><path d="M453.9,205v5.27L438.24,250H432l15.65-40.06H422.51V191.85h5.76V205Z" style="fill:#fff"/><path d="M461.28,245.06H472q6.57,0,9.9-3.82t3.32-11.19v-5.11q0-7.38-3.32-11.19t-9.9-3.81h-10.7V205H473.2q8.76,0,13.5,5.19t4.75,15v4.63q0,9.81-4.75,15T473.2,250H461.28Z" style="fill:#fff"/><path d="M502.15,214.48l-1-9.49h6.16l1.14,9.49v12.08l-.08,5.11-6.17,1.3Z" style="fill:#fff"/><path d="M540.44,219.83q0-5.27-2.27-7.58a8.71,8.71,0,0,0-6.49-2.31H517.32V205h15.74q13.62,0,13.62,15.08V250h-6.24Z" style="fill:#fff"/><path d="M577.18,219.43q0-6.26,2.19-9.49H556.66V205h34.71v4.95h-6c-1.3,2.21-2,5.38-2,9.49V250h-6.24Z" style="fill:#fff"/><path d="M631.6,250l-18.41-27.65L604.51,250h-6l8.84-27.9,2.19-5.35L602.08,205h6.4l7.22,11.35,7.63,11.28,1.86-6.73,4.87-15.9h6.08L627,233.13,638.41,250Z" style="fill:#fff"/></svg>