<svg xmlns="http://www.w3.org/2000/svg" viewBox="0 0 1913.5 636.52">
  <path d="M24.06,0H1152.21a24.06,24.06,0,0,1,24.06,24.06v588.4a24.06,24.06,0,0,1-24.06,24.06H24.06A24.06,24.06,0,0,1,0,612.46H0V24.06A24.06,24.06,0,0,1,24.06,0" transform="translate(0)" fill="#002b49"/>
  <path d="M546.48,418.8h582.25a20.33,20.33,0,0,1,20.33,20.33h0V590.9a20.33,20.33,0,0,1-20.33,20.32H546.48a20.33,20.33,0,0,1-20.33-20.32V439.13a20.33,20.33,0,0,1,20.33-20.33" transform="translate(0)" fill="#ccbebc"/>
  <path d="M548.29,16.41H1126a27.51,27.51,0,0,1,27.47,27.47V366.49A27.51,27.51,0,0,1,1126,394H548.29a27.5,27.5,0,0,1-27.47-27.47V43.88A27.51,27.51,0,0,1,548.29,16.41ZM1126,379.68a13.19,13.19,0,0,0,13.18-13.19V43.88A13.18,13.18,0,0,0,1126,30.7H548.29a13.18,13.18,0,0,0-13.18,13.18V366.49a13.18,13.18,0,0,0,13.18,13.18Z" transform="translate(0)" fill="#fff"/>
  <path d="M734,114.6v41.61a4.46,4.46,0,0,1-4.46,4.46H674.17a4.46,4.46,0,0,1-4.46-4.46h0V114.6a4.46,4.46,0,0,1,4.46-4.46H729.5A4.46,4.46,0,0,1,734,114.6h0" transform="translate(0)" fill="#ccbebc"/>
  <path d="M595.92,188.39h41.61a4.46,4.46,0,0,1,4.46,4.46h0v55.33a4.46,4.46,0,0,1-4.46,4.46H595.92a4.46,4.46,0,0,1-4.46-4.46h0V192.85a4.46,4.46,0,0,1,4.46-4.46h0" transform="translate(0)" fill="#ccbebc"/>
  <path d="M669.71,326.42v-41.6a4.45,4.45,0,0,1,4.46-4.46H729.5a4.46,4.46,0,0,1,4.46,4.46h0v41.6a4.46,4.46,0,0,1-4.46,4.46H674.17a4.45,4.45,0,0,1-4.46-4.46h0" transform="translate(0)" fill="#ccbebc"/>
  <path d="M807.74,252.64h-41.6a4.46,4.46,0,0,1-4.46-4.46h0V192.85a4.46,4.46,0,0,1,4.46-4.46h41.6a4.45,4.45,0,0,1,4.46,4.46h0v55.33a4.46,4.46,0,0,1-4.46,4.46h0" transform="translate(0)" fill="#ccbebc"/>
  <path d="M656.48,220.51a45.36,45.36,0,1,0,45.36-45.35h0a45.35,45.35,0,0,0-45.35,45.36" transform="translate(0)" fill="#fff"/>
  <path d="M1027.8,229.58h76.81a10,10,0,0,0,10-10h0V62.67a10,10,0,0,0-10-10H1027.8a10,10,0,0,0-10,10h0V219.61a10,10,0,0,0,10,10h0" transform="translate(0)" fill="#fff"/>
  <path d="M52.19,17.05H462.38A28.68,28.68,0,0,1,491,45.7V589.3A28.69,28.69,0,0,1,462.38,618H52.19A28.7,28.7,0,0,1,23.53,589.3V45.7A28.68,28.68,0,0,1,52.19,17.05ZM462.38,603.67a14.38,14.38,0,0,0,14.36-14.37V45.7a14.38,14.38,0,0,0-14.36-14.37H52.19A14.38,14.38,0,0,0,37.82,45.7V589.3a14.38,14.38,0,0,0,14.37,14.37Z" transform="translate(0)" fill="#fff"/>
  <path d="M392.47,220.67H362.3a4.46,4.46,0,0,1-4.46-4.46v-40.8A4.46,4.46,0,0,1,362.3,171h30.17a4.46,4.46,0,0,1,4.46,4.46h0v40.8a4.46,4.46,0,0,1-4.46,4.46h0" transform="translate(0)" fill="#ccbebc"/>
  <path d="M336.39,114.87v30.18a4.46,4.46,0,0,1-4.46,4.46h-40.8a4.46,4.46,0,0,1-4.46-4.46h0V114.87a4.46,4.46,0,0,1,4.46-4.46h40.8a4.46,4.46,0,0,1,4.46,4.46" transform="translate(0)" fill="#ccbebc"/>
  <path d="M230.58,171h30.18a4.46,4.46,0,0,1,4.46,4.46v40.8a4.46,4.46,0,0,1-4.46,4.46H230.58a4.46,4.46,0,0,1-4.46-4.46v-40.8a4.46,4.46,0,0,1,4.46-4.46" transform="translate(0)" fill="#ccbebc"/>
  <path d="M286.67,276.76V246.58a4.46,4.46,0,0,1,4.46-4.46h40.8a4.46,4.46,0,0,1,4.46,4.46v30.18a4.46,4.46,0,0,1-4.46,4.46h-40.8a4.46,4.46,0,0,1-4.46-4.46" transform="translate(0)" fill="#ccbebc"/>
  <path d="M311.53,161.81a34,34,0,1,0,34,34,34,34,0,0,0-34-34h0" transform="translate(0)" fill="#e9d8c9"/>
  <path d="M170.85,493.79v70.46a10,10,0,0,0,10,10H437.56a10,10,0,0,0,10-10V493.79a10,10,0,0,0-10-10H180.83a10,10,0,0,0-10,10h0" transform="translate(0)" fill="#ccbebc"/>
  <path d="M144.85,263.07H74.39a10,10,0,0,0-10,10V561.53a10,10,0,0,0,10,10h70.46a10,10,0,0,0,10-10h0V273.05a10,10,0,0,0-10-10" transform="translate(0)" fill="#fff"/>
  <g>
    <path d="M1537,348.38l131.79-74.88-430.31,53.71-99.26,74.66a5.25,5.25,0,0,0,4,9.38Z" transform="translate(0)" fill="#ccbebc"/>
    <path d="M1910.1,528.33,1468,444.11a16.57,16.57,0,0,0-6.2,0l-442.12,84.22a4.09,4.09,0,0,0-3.4,4.12v15.43a4.08,4.08,0,0,0,3.4,4.12l442.12,84.23a16.57,16.57,0,0,0,6.2,0L1910.1,552a4.07,4.07,0,0,0,3.39-4.12V532.45a4.07,4.07,0,0,0-3.39-4.12" transform="translate(0)" fill="#002b49"/>
    <path d="M1019.66,536.58l442.12,84.22a16.57,16.57,0,0,0,6.2,0l442.12-84.22a4.2,4.2,0,0,0,0-8.25L1468,444.11a16.57,16.57,0,0,0-6.2,0l-442.12,84.22a4.21,4.21,0,0,0,0,8.25" transform="translate(0)" fill="#ccbebc"/>
    <path d="M1212.81,383.87V541.32a5.26,5.26,0,0,0,4.33,5.18l168.41,30.16a21.33,21.33,0,0,0,7.39,0l332.53-59.14a5.25,5.25,0,0,0,4.33-5.17l0-159.9a5.27,5.27,0,0,0-5.1-5.26l-442.58-13.4a5.23,5.23,0,0,0-3.18.95l-63.92,44.82a5.27,5.27,0,0,0-2.24,4.3" transform="translate(0)" fill="#002b49"/>
    <path d="M1780.24,370.82l-111.42-97.31-430.31,53.7L1357.6,445a5.3,5.3,0,0,0,4.53,1.45L1777.6,380a5.25,5.25,0,0,0,4.36-6,5.31,5.31,0,0,0-1.73-3.12" transform="translate(0)" fill="#ccbebc"/>
  </g>
</svg>
