<svg xmlns="http://www.w3.org/2000/svg" viewBox="0 0 1913.5 1182.37">
  <g>
    <path d="M713,92.67h0l0,0a30.09,30.09,0,0,1,3.51-3.54l12.9-13,.54,6.36a30,30,0,0,1,6.27-.66H1243.2a30.35,30.35,0,0,1,30.34,30.35h0V380.07l3-1.1,4.54,9.58-15.5,15.5q-.93,1-1.95,1.95h0a30.22,30.22,0,0,1-20.45,7.93H736.27a30.35,30.35,0,0,1-30.35-30.34h0V112.16a30.2,30.2,0,0,1,7.1-19.5" fill="#ccbebc"/>
    <path d="M751.79,398.42h506.93a30.34,30.34,0,0,0,30.34-30.35h0V96.65a30.34,30.34,0,0,0-30.34-30.35H751.79a30.35,30.35,0,0,0-30.35,30.35h0V368.07a30.35,30.35,0,0,0,30.35,30.35h0" fill="#002b49"/>
    <path d="M400.8,471.3h0l0,0a30.88,30.88,0,0,1,3.51-3.54l12.9-13,.54,6.36a30.68,30.68,0,0,1,6.27-.65H931a30.34,30.34,0,0,1,30.34,30.34h0V758.71l3-1.11,4.54,9.59-15.5,15.49c-.62.68-1.27,1.33-2,2h0A30.21,30.21,0,0,1,931,792.56H424.05a30.34,30.34,0,0,1-30.35-30.34h0V490.79a30.15,30.15,0,0,1,7.1-19.49" fill="#ccbebc"/>
    <path d="M439.57,777.05H946.5a30.34,30.34,0,0,0,30.34-30.34h0V475.28a30.34,30.34,0,0,0-30.34-30.34H439.57a30.34,30.34,0,0,0-30.35,30.34h0V746.71a30.34,30.34,0,0,0,30.35,30.34h0" fill="#002b49"/>
    <path d="M1025.24,471.3h0l0,0a30.88,30.88,0,0,1,3.51-3.54l12.9-13,.54,6.36a30.68,30.68,0,0,1,6.27-.65h506.94a30.34,30.34,0,0,1,30.34,30.34h0V758.71l3-1.11,4.55,9.59-15.5,15.49c-.62.68-1.28,1.33-2,2h0a30.19,30.19,0,0,1-20.44,7.92H1048.49a30.34,30.34,0,0,1-30.35-30.34h0V490.79a30.2,30.2,0,0,1,7.09-19.49" fill="#ccbebc"/>
    <path d="M1064,777.05h506.94a30.34,30.34,0,0,0,30.34-30.34h0V475.28a30.34,30.34,0,0,0-30.34-30.34H1064a30.34,30.34,0,0,0-30.34,30.34h0V746.71A30.34,30.34,0,0,0,1064,777.05h0" fill="#002b49"/>
    <path d="M88.58,861.11h0l0,0a30.18,30.18,0,0,1,3.52-3.54l12.89-13,.54,6.36a30.07,30.07,0,0,1,6.27-.66H618.76a30.34,30.34,0,0,1,30.34,30.35h0v267.9l3-1.1,4.54,9.59-15.49,15.49c-.63.68-1.28,1.33-2,2h0a30.22,30.22,0,0,1-20.45,7.93H111.83A30.34,30.34,0,0,1,81.48,1152h0V880.6a30.25,30.25,0,0,1,7.1-19.5" fill="#ccbebc"/>
    <path d="M127.35,1166.86H634.28a30.35,30.35,0,0,0,30.35-30.35h0V865.09a30.35,30.35,0,0,0-30.35-30.35H127.35A30.35,30.35,0,0,0,97,865.09h0v271.43a30.35,30.35,0,0,0,30.35,30.34h0" fill="#002b49"/>
    <path d="M713,861.11h0l0,0a30.09,30.09,0,0,1,3.51-3.54l12.9-13,.54,6.36a30,30,0,0,1,6.27-.66H1243.2a30.35,30.35,0,0,1,30.34,30.35h0v267.9l3-1.1,4.54,9.59-15.5,15.49q-.93,1-1.95,2h0a30.22,30.22,0,0,1-20.45,7.93H736.27A30.34,30.34,0,0,1,705.92,1152h0V880.6a30.2,30.2,0,0,1,7.1-19.5" fill="#ccbebc"/>
    <path d="M751.79,1166.86h506.93a30.34,30.34,0,0,0,30.34-30.35h0V865.09a30.34,30.34,0,0,0-30.34-30.35H751.79a30.35,30.35,0,0,0-30.35,30.35h0v271.43a30.35,30.35,0,0,0,30.35,30.34h0" fill="#002b49"/>
    <path d="M1337.46,861.11h0l0,0a29.34,29.34,0,0,1,3.51-3.54l12.9-13,.54,6.36a30,30,0,0,1,6.27-.66h506.94A30.34,30.34,0,0,1,1898,880.61h0v267.9l3-1.1,4.54,9.59-15.5,15.49q-.93,1-2,2h0a30.22,30.22,0,0,1-20.45,7.93H1360.7a30.34,30.34,0,0,1-30.34-30.34h0V880.6a30.24,30.24,0,0,1,7.09-19.5" fill="#ccbebc"/>
    <path d="M1376.22,1166.86h506.93a30.35,30.35,0,0,0,30.35-30.35h0V865.09a30.35,30.35,0,0,0-30.35-30.35H1376.22a30.34,30.34,0,0,0-30.34,30.35h0v271.43a30.34,30.34,0,0,0,30.34,30.34h0" fill="#002b49"/>
  </g>
  <g>
    <path d="M7.78,667l71.34,40.81A15.44,15.44,0,0,0,100.19,702h0l273.07-477.3-98.14-56.15L2,645.89A15.44,15.44,0,0,0,7.78,667h0" fill="#ccbebc"/>
    <path d="M145.74.07,343.13,25.28a26.45,26.45,0,0,1,9.79,3.28L556.45,145a26.46,26.46,0,0,1,9.83,36.11L504.71,288.74a26.47,26.47,0,0,1-36.11,9.83L265.06,182.12a26.64,26.64,0,0,1-7.79-6.78L135.51,18A11.22,11.22,0,0,1,145.74.07" fill="#002b49"/>
  </g>
</svg>
