<svg xmlns="http://www.w3.org/2000/svg" viewBox="0 0 234.37 198.08">
  <g>
    <path d="M127.93,3.73c-6.55,7.77-2.7,53.07-4.27,80.34-.62,10.85.78,21.17,4.27,23,10,5.19,87.45,5.46,97,0,7.32-4.19-1-45.18-16.83-64.68C190.8,21,179,16.65,168.69,11.08,147.53-.36,133.75-3.18,127.93,3.73Z" fill="#cbbdbb"/>
    <path d="M11.57,132c11.85-1.63,207.73-5.7,216.94,2.58,10.5,9.43,4,31.54,2.51,47.9-.74,8.24-8.46,13.32-11.14,13.3-26.86-.14-76.45.49-126.1.86-19.27.14-71.16,1.59-82.21,1.38S-.28,133.66,11.57,132Z" fill="#002b49"/>
    <circle cx="55.93" cy="59.93" r="55.93" fill="#cbbdbb"/>
  </g>
</svg>
