<svg xmlns="http://www.w3.org/2000/svg" viewBox="0 0 150 150"><path d="M101.43,75A26.43,26.43,0,1,1,75,48.58,26.42,26.42,0,0,1,101.43,75Z" style="fill:#002b49"/><path d="M140,75c0,21.17-.08,23.68-.47,32-.39,8.59-2.4,17.58-8.66,23.83s-15.16,8.27-23.84,8.67c-8.35.38-10.87.46-32,.46s-23.68-.08-32-.46c-8.54-.39-17.64-2.45-23.84-8.67S10.86,115.65,10.46,107C10.08,98.68,10,96.17,10,75s.08-23.68.46-32c.4-8.56,2.43-17.6,8.67-23.84S34.32,10.86,43,10.46c8.35-.38,10.86-.46,32-.46s23.68.08,32,.46c8.65.4,17.55,2.37,23.84,8.66S139.14,34.3,139.53,43C139.92,51.32,140,53.83,140,75Z" style="fill:#ccbebc"/><path d="M75,34.29A40.71,40.71,0,1,0,115.71,75,40.72,40.72,0,0,0,75,34.29Zm0,67.13A26.42,26.42,0,1,1,101.43,75,26.42,26.42,0,0,1,75,101.42Z" style="fill:#fff"/><circle cx="117.32" cy="32.68" r="9.51" style="fill:#fff"/></svg>