<svg width="150" height="150" viewBox="0 0 150 150" fill="none" xmlns="http://www.w3.org/2000/svg">
<path d="M101.43 75C101.432 80.2278 99.8836 85.3388 96.9806 89.6865C94.0776 94.0342 89.9505 97.4233 85.1213 99.4253C80.292 101.427 74.9775 101.952 69.8499 100.933C64.7223 99.9147 60.012 97.3983 56.3147 93.7024C52.6174 90.0065 50.0992 85.2971 49.0786 80.1699C48.058 75.0427 48.5808 69.728 50.5809 64.898C52.581 60.068 55.9686 55.9396 60.3152 53.035C64.6618 50.1304 69.7722 48.58 75 48.58C78.4704 48.5787 81.907 49.2611 85.1136 50.5882C88.3201 51.9154 91.2338 53.8613 93.6882 56.3147C96.1426 58.7682 98.0896 61.6811 99.4179 64.8872C100.746 68.0933 101.43 71.5297 101.43 75Z" fill="#002B49"/>
<path d="M140 75C140 96.17 139.92 98.68 139.53 107C139.14 115.59 137.13 124.58 130.87 130.83C124.61 137.08 115.71 139.1 107.03 139.5C98.68 139.88 96.16 139.96 75.03 139.96C53.9 139.96 51.35 139.88 43.03 139.5C34.49 139.11 25.39 137.05 19.19 130.83C12.99 124.61 10.86 115.65 10.46 107C10.08 98.68 10 96.17 10 75C10 53.83 10.08 51.32 10.46 43C10.86 34.44 12.89 25.4 19.13 19.16C25.37 12.92 34.32 10.86 43 10.46C51.35 10.08 53.86 10 75 10C96.14 10 98.68 10.08 107 10.46C115.65 10.86 124.55 12.83 130.84 19.12C137.13 25.41 139.14 34.3 139.53 43C139.92 51.32 140 53.83 140 75Z" fill="#F2EDE9"/>
<g filter="url(#filter0_d_152_14)">
<path d="M75 34.29C66.9483 34.29 59.0775 36.6776 52.3827 41.1508C45.688 45.6241 40.4701 51.9822 37.3889 59.4209C34.3076 66.8597 33.5014 75.0451 35.0722 82.9421C36.643 90.8391 40.5203 98.0929 46.2137 103.786C51.9071 109.48 59.1609 113.357 67.0579 114.928C74.9548 116.499 83.1403 115.692 90.579 112.611C98.0178 109.53 104.376 104.312 108.849 97.6172C113.322 90.9225 115.71 83.0517 115.71 75C115.707 64.2038 111.417 53.8506 103.783 46.2166C96.1494 38.5826 85.7961 34.2926 75 34.29ZM75 101.42C69.775 101.418 64.668 99.8668 60.3246 96.9625C55.9811 94.0583 52.5964 89.9313 50.5982 85.1035C48.6001 80.2757 48.0783 74.9639 49.0989 69.8396C50.1194 64.7152 52.6365 60.0086 56.3318 56.3147C60.0271 52.6208 64.7347 50.1055 69.8594 49.0869C74.9841 48.0683 80.2958 48.5921 85.1228 50.592C89.9498 52.592 94.0755 55.9783 96.9781 60.3229C99.8807 64.6674 101.43 69.775 101.43 75C101.43 78.4703 100.746 81.9067 99.4179 85.1128C98.0896 88.3189 96.1426 91.2318 93.6882 93.6853C91.2338 96.1387 88.3201 98.0846 85.1136 99.4117C81.907 100.739 78.4704 101.421 75 101.42Z" fill="white"/>
</g>
<g filter="url(#filter1_d_152_14)">
<path d="M117.32 42.19C122.572 42.19 126.83 37.9322 126.83 32.68C126.83 27.4278 122.572 23.17 117.32 23.17C112.068 23.17 107.81 27.4278 107.81 32.68C107.81 37.9322 112.068 42.19 117.32 42.19Z" fill="white"/>
</g>
<defs>
<filter id="filter0_d_152_14" x="14.29" y="14.29" width="121.42" height="121.42" filterUnits="userSpaceOnUse" color-interpolation-filters="sRGB">
<feFlood flood-opacity="0" result="BackgroundImageFix"/>
<feColorMatrix in="SourceAlpha" type="matrix" values="0 0 0 0 0 0 0 0 0 0 0 0 0 0 0 0 0 0 127 0" result="hardAlpha"/>
<feOffset/>
<feGaussianBlur stdDeviation="10"/>
<feComposite in2="hardAlpha" operator="out"/>
<feColorMatrix type="matrix" values="0 0 0 0 0 0 0 0 0 0 0 0 0 0 0 0 0 0 0.15 0"/>
<feBlend mode="normal" in2="BackgroundImageFix" result="effect1_dropShadow_152_14"/>
<feBlend mode="normal" in="SourceGraphic" in2="effect1_dropShadow_152_14" result="shape"/>
</filter>
<filter id="filter1_d_152_14" x="87.81" y="3.16998" width="59.02" height="59.02" filterUnits="userSpaceOnUse" color-interpolation-filters="sRGB">
<feFlood flood-opacity="0" result="BackgroundImageFix"/>
<feColorMatrix in="SourceAlpha" type="matrix" values="0 0 0 0 0 0 0 0 0 0 0 0 0 0 0 0 0 0 127 0" result="hardAlpha"/>
<feOffset/>
<feGaussianBlur stdDeviation="10"/>
<feComposite in2="hardAlpha" operator="out"/>
<feColorMatrix type="matrix" values="0 0 0 0 0 0 0 0 0 0 0 0 0 0 0 0 0 0 0.15 0"/>
<feBlend mode="normal" in2="BackgroundImageFix" result="effect1_dropShadow_152_14"/>
<feBlend mode="normal" in="SourceGraphic" in2="effect1_dropShadow_152_14" result="shape"/>
</filter>
</defs>
</svg>
