<svg xmlns="http://www.w3.org/2000/svg" viewBox="0 0 150 150"><circle cx="75" cy="75" r="65" style="fill:#ccbebc"/><path d="M50.88,33.86a9.85,9.85,0,0,1,4.5,2,6.19,6.19,0,0,1,.55.47C59.62,40,63.33,43.65,67,47.37a7.73,7.73,0,0,1,1.28,9.71,6.91,6.91,0,0,1-3.65,3,8,8,0,0,0-5,4.46,6.86,6.86,0,0,0-.32,4.62,27.06,27.06,0,0,0,6.14,10.78,37.33,37.33,0,0,0,11.67,9.29,10.5,10.5,0,0,0,6.07,1.44,7.38,7.38,0,0,0,6.28-4.6,8.51,8.51,0,0,1,3.43-4.5,7.59,7.59,0,0,1,9,.78c2.26,2.06,4.37,4.26,6.53,6.42,2,2,4,3.89,5.83,6a7.89,7.89,0,0,1,.34,9.61,13.89,13.89,0,0,1-1.39,1.66c-2.16,2.19-4.4,4.31-6.51,6.55a11.49,11.49,0,0,1-8.25,3.56,27.15,27.15,0,0,1-9.9-1.7,67.07,67.07,0,0,1-17.42-9.32A112.76,112.76,0,0,1,47.58,82.46,71.71,71.71,0,0,1,35.72,61.55,27.66,27.66,0,0,1,34,51.16a11.36,11.36,0,0,1,3.53-8.09c2-1.86,3.87-3.78,5.74-5.73a9.9,9.9,0,0,1,5.87-3.48Z" style="fill:#fff"/></svg>