<svg width="150" height="150" viewBox="0 0 150 150" fill="none" xmlns="http://www.w3.org/2000/svg">
<g clip-path="url(#clip0_152_5)">
<path d="M140 75C140 87.8558 136.188 100.423 129.046 111.112C121.903 121.801 111.752 130.132 99.8744 135.052C87.9972 139.972 74.9279 141.259 62.3191 138.751C49.7104 136.243 38.1285 130.052 29.0381 120.962C19.9476 111.872 13.757 100.29 11.249 87.6809C8.74092 75.0721 10.0281 62.0028 14.9478 50.1256C19.8675 38.2484 28.1987 28.0968 38.8879 20.9545C49.5771 13.8122 62.1442 10 75 10C83.5441 9.97094 92.0095 11.6324 99.9088 14.8886C107.808 18.1449 114.985 22.9317 121.027 28.9733C127.068 35.0149 131.855 42.192 135.111 50.0912C138.368 57.9905 140.029 66.4559 140 75Z" fill="#F2EDE9"/>
<g filter="url(#filter0_d_152_5)">
<path d="M75 83.48C88.4868 83.48 99.42 72.5468 99.42 59.06C99.42 45.5732 88.4868 34.64 75 34.64C61.5132 34.64 50.58 45.5732 50.58 59.06C50.58 72.5468 61.5132 83.48 75 83.48Z" fill="white"/>
<path d="M121.17 120.75C115.127 126.847 107.936 131.686 100.012 134.989C92.0887 138.292 83.5894 139.992 75.005 139.992C66.4206 139.992 57.9213 138.292 49.9977 134.989C42.0741 131.686 34.8831 126.847 28.84 120.75C31.9704 110.965 38.1288 102.428 46.4264 96.3709C54.724 90.3136 64.7317 87.0494 75.005 87.0494C85.2783 87.0494 95.286 90.3136 103.584 96.3709C111.881 102.428 118.04 110.965 121.17 120.75Z" fill="white"/>
</g>
</g>
<defs>
<filter id="filter0_d_152_5" x="8.84" y="14.64" width="132.33" height="145.352" filterUnits="userSpaceOnUse" color-interpolation-filters="sRGB">
<feFlood flood-opacity="0" result="BackgroundImageFix"/>
<feColorMatrix in="SourceAlpha" type="matrix" values="0 0 0 0 0 0 0 0 0 0 0 0 0 0 0 0 0 0 127 0" result="hardAlpha"/>
<feOffset/>
<feGaussianBlur stdDeviation="10"/>
<feComposite in2="hardAlpha" operator="out"/>
<feColorMatrix type="matrix" values="0 0 0 0 0 0 0 0 0 0 0 0 0 0 0 0 0 0 0.15 0"/>
<feBlend mode="normal" in2="BackgroundImageFix" result="effect1_dropShadow_152_5"/>
<feBlend mode="normal" in="SourceGraphic" in2="effect1_dropShadow_152_5" result="shape"/>
</filter>
<clipPath id="clip0_152_5">
<rect width="150" height="150" fill="white"/>
</clipPath>
</defs>
</svg>
