<svg width="35" height="34" viewBox="0 0 35 34" fill="none" xmlns="http://www.w3.org/2000/svg">
<g clip-path="url(#clip0_153_29)">
<path d="M17.422 33.843C14.0751 33.8432 10.8032 32.8509 8.02026 30.9915C5.2373 29.1322 3.06821 26.4893 1.7873 23.3972C0.506392 20.3051 0.171196 16.9025 0.824103 13.6199C1.47701 10.3373 3.0887 7.32195 5.45534 4.95531C7.82198 2.58866 10.8373 0.97698 14.1199 0.324073C17.4026 -0.328834 20.8051 0.00636172 23.8972 1.28727C26.9894 2.56818 29.6322 4.73727 31.4915 7.52023C33.3509 10.3032 34.3432 13.575 34.343 16.922C34.3427 21.4096 32.5599 25.7134 29.3867 28.8866C26.2134 32.0599 21.9096 33.8427 17.422 33.843Z" fill="#F2EDE9"/>
</g>
<defs>
<clipPath id="clip0_153_29">
<rect width="33.844" height="33.843" fill="white" transform="translate(0.5)"/>
</clipPath>
</defs>
</svg>
