<svg width="32" height="32" viewBox="0 0 32 32" fill="none" xmlns="http://www.w3.org/2000/svg">
<g clip-path="url(#clip0_153_37)">
<path d="M31.869 29.457C31.9336 29.7034 31.9422 29.9611 31.8941 30.2113C31.8461 30.4614 31.7427 30.6976 31.5915 30.9026C31.4402 31.1075 31.245 31.276 31.0201 31.3956C30.7953 31.5153 30.5465 31.5831 30.292 31.594C26.3842 31.3245 22.4642 31.2768 18.551 31.451C11.073 31.809 2.315 31.607 1.394 31.208C-0.793998 30.261 1.52101 21.971 3.18801 18.18C4.491 15.0736 6.32999 12.2205 8.62101 9.751C12.121 6.251 15.621 2.932 20.567 1.471C23.9689 0.553341 27.471 0.0592682 30.994 0C31.461 0 32.016 0.665997 32.007 1.853C31.957 8.416 31.435 26.809 31.869 29.457Z" fill="#F2EDE9"/>
</g>
<defs>
<clipPath id="clip0_153_37">
<rect width="31.505" height="31.637" fill="white" transform="translate(0.5)"/>
</clipPath>
</defs>
</svg>
