<svg xmlns="http://www.w3.org/2000/svg" viewBox="0 0 246.06 186.06"><path d="M104,133.23a8.08,8.08,0,0,0-10,2.37c-2.72,3.52-.29,9.57-.16,10C99.3,162.9,81.61,179.9,57.63,179.9,36,179.9,9.35,169.62,0,147.75l4.55,37.17a51.36,51.36,0,0,1,15.75-2.29c11.39,0,21.2,3.43,37.38,3.43,23.93,0,41.57-11.24,47.9-24.39,3.19-6.61,5-11.55,3.72-20C109.22,141.06,108.63,135.42,104,133.23Zm142,49.18v1.36H189.5v-1.36c12.09,0,18.25-7.3,18.25-32.15V98.5c0-15-11.86-24.16-25.76-24.16-12.78,0-25,9.69-36.26,24.85V148c0,27.13,5.93,34.43,18.25,34.43v1.36H107.44v-1.36c12.3,0,18.46-7.76,18.46-33.75V113.8a85.21,85.21,0,0,1-12.33,5.63,85.21,85.21,0,0,1-27.67,4,110.79,110.79,0,0,1-45.77-12.08C15.68,99.17,2.35,85.71,2.35,61.9c0-26,26.15-37.73,51-37.73,12.31,0,22.35,1.61,31.23,1.61A41.67,41.67,0,0,0,99,23.5l3.18,32.36c-4.32-16.41-26-26.2-45.13-26.2-16.64,0-36.19,10.58-36.19,27.92,0,16.15,14.1,30,29.23,39,21.29,12.62,37.27,19.47,63.53,14.9a33.25,33.25,0,0,0,12.33-5.17V23.73c0-14.83-1.6-19.16-9.35-19.16a38.06,38.06,0,0,0-6.83.68V3.43C117,1.6,124.53,0,130.46,0c10.48,0,15.27,4.34,15.27,12.09V88.47c12.37-15.85,27.82-23.71,43.56-23.71,20.74,0,38.52,11.63,38.52,30.78V148C227.81,175.11,233.74,182.41,246.06,182.41Z" style="fill:#fff"/></svg>