<?xml version="1.0" encoding="UTF-8" standalone="no"?>
<!DOCTYPE svg PUBLIC "-//W3C//DTD SVG 1.1//EN" "http://www.w3.org/Graphics/SVG/1.1/DTD/svg11.dtd">
<svg width="100%" height="100%" viewBox="0 0 627 627" version="1.1" xmlns="http://www.w3.org/2000/svg" xmlns:xlink="http://www.w3.org/1999/xlink" xml:space="preserve" xmlns:serif="http://www.serif.com/" style="fill-rule:evenodd;clip-rule:evenodd;stroke-linejoin:round;stroke-miterlimit:2;">
    <g transform="matrix(1,0,0,1,-18770,-1963)">
        <g id="shiran_logo_icon" transform="matrix(1,0,0,1,-0.786563,-0.095833)">
            <rect x="18770.787" y="1963.096" width="626.67" height="626.67" style="fill:none;"/>
            <clipPath id="_clip1">
                <rect x="18770.787" y="1963.096" width="626.67" height="626.67"/>
            </clipPath>
            <g clip-path="url(#_clip1)">
                <g transform="matrix(1,0,0,1,0.786563,0.095833)">
                    <circle cx="19083.335" cy="2276.335" r="313.335" style="fill:rgb(23,43,67);"/>
                </g>
                <g transform="matrix(0.475588,0,0,0.475588,19274.356582,2119.64475)">
                    <path d="M0,581.189L0,585.591L-183.874,585.591L-183.874,581.189C-144.574,581.189 -124.552,557.46 -124.552,476.662L-124.552,308.357C-124.552,259.449 -163.097,229.815 -208.3,229.815C-249.854,229.815 -289.691,261.338 -326.194,310.612L-326.194,469.254C-326.194,557.46 -306.922,581.189 -266.872,581.189L-266.872,585.591L-450.694,585.591L-450.694,581.189C-410.697,581.189 -390.672,555.957 -390.672,471.455L-390.672,358.132C-390.672,358.132 -409.293,368.81 -430.742,376.406C-452.192,384.002 -489.943,390.684 -520.703,389.547C-560.675,388.069 -612.061,379.021 -669.532,350.286C-749.016,310.544 -792.364,266.795 -792.364,189.389C-792.364,104.888 -707.327,66.717 -626.531,66.717C-586.534,66.717 -553.892,71.925 -525.01,71.925C-507.937,71.925 -492.368,69.67 -478.302,64.516L-467.942,169.741C-482.006,116.377 -552.443,84.541 -614.666,84.541C-668.779,84.541 -732.345,118.954 -732.345,175.324C-732.345,227.829 -686.496,272.827 -637.32,301.969C-568.082,342.999 -516.116,365.27 -430.742,350.423C-408.498,346.554 -390.672,333.597 -390.672,333.597L-390.672,65.268C-390.672,17.058 -395.878,2.992 -421.056,2.992C-427.715,2.992 -435.123,3.69 -443.283,5.193L-443.283,-0.712C-419.609,-6.671 -395.128,-11.879 -375.853,-11.879C-341.765,-11.879 -326.194,2.241 -326.194,27.419L-326.194,275.77C-285.979,224.219 -235.735,198.677 -184.571,198.677C-117.142,198.677 -59.322,236.472 -59.322,298.747L-59.322,469.254C-59.322,557.46 -40.049,581.189 0,581.189M-461.802,421.279C-473.716,415.612 -486.871,419.314 -494.328,428.978C-503.162,440.428 -495.261,460.102 -494.847,461.436C-477.156,517.737 -534.675,573.024 -612.624,573.024C-683.038,573.024 -769.6,539.617 -800,468.498L-785.191,589.356C-765.888,583.38 -749.592,581.896 -734.004,581.896C-696.957,581.896 -665.073,593.068 -612.476,593.068C-534.675,593.068 -477.326,556.503 -456.726,513.746C-446.367,492.274 -440.56,476.211 -444.621,448.584C-444.907,446.747 -446.805,428.413 -461.802,421.279" style="fill:white;fill-rule:nonzero;"/>
                </g>
            </g>
        </g>
    </g>
</svg>
