<svg xmlns="http://www.w3.org/2000/svg" width="31.505" height="31.637" viewBox="0 0 31.505 31.637">
  <path id="_5" data-name="5" d="M260.559,123.063a1.706,1.706,0,0,1-1.577,2.137,103.649,103.649,0,0,0-11.741-.143c-7.478.358-16.236.156-17.157-.243-2.188-.947.127-9.237,1.794-13.028a28.738,28.738,0,0,1,5.433-8.429c3.5-3.5,7-6.819,11.946-8.28a42.8,42.8,0,0,1,10.427-1.471c.467,0,1.022.666,1.013,1.853C260.647,102.022,260.125,120.415,260.559,123.063Z" transform="translate(-229.19 -93.606)" fill="#ccbebc"/>
</svg>
